<?xml version="1.0" standalone="no"?><!DOCTYPE svg PUBLIC "-//W3C//DTD SVG 1.1//EN" "http://www.w3.org/Graphics/SVG/1.1/DTD/svg11.dtd"><svg t="1690728248177" class="icon" viewBox="0 0 1024 1024" version="1.1" xmlns="http://www.w3.org/2000/svg" p-id="5876" xmlns:xlink="http://www.w3.org/1999/xlink" width="200" height="200"><path d="M0 0v1024h1024V0z m514.56 785.577143c-115.565714 0-223.828571-57.051429-222.365714-185.794286H403.428571c0 69.497143 54.125714 96.56 115.577143 96.56 40.228571 0 101.714286-11.702857 101.714286-65.142857 0-56.331429-78.262857-65.84-155.074286-86.308571C388.022857 524.434286 309.714286 494.445714 309.714286 396.422857c0-106.8 100.937143-158 195.302857-158 108.982857 0 209.2 47.542857 209.2 168.24h-111.142857c-3.657143-62.857143-48.274286-78.994286-103.131429-78.994286-36.571429 0-78.994286 15.36-78.994286 59.245715 0 40.228571 24.868571 45.348571 155.805715 79.005714 38.022857 9.508571 155.062857 33.645714 155.062857 152.137143 0 95.828571-75.348571 167.52-217.257143 167.52z" fill="#7828c8" p-id="5877"></path></svg>